<?xml version="1.0" encoding="iso-8859-1"?>
<!-- Generator: Adobe Illustrator 16.0.0, SVG Export Plug-In . SVG Version: 6.00 Build 0)  -->
<!DOCTYPE svg PUBLIC "-//W3C//DTD SVG 1.1//EN" "http://www.w3.org/Graphics/SVG/1.1/DTD/svg11.dtd">
<svg xmlns="http://www.w3.org/2000/svg" xmlns:xlink="http://www.w3.org/1999/xlink" version="1.1" id="Capa_1" x="0px" y="0px" width="512px" height="512px" viewBox="0 0 31.677 31.677" style="enable-background:new 0 0 31.677 31.677;" xml:space="preserve">
<g>
	<g>
		<path d="M12.159,2.162c-0.714,0-1.293,0.579-1.293,1.293v1.781h2.254V5.133c0-0.453,0.367-0.819,0.819-0.819h14.765    c0.452,0,0.819,0.366,0.819,0.819v10.662c0,0.283-0.229,0.514-0.513,0.514v2.254h1.372c0.714,0,1.294-0.579,1.294-1.294V3.455    c0-0.714-0.579-1.293-1.294-1.293H12.159z" fill="#006DF0"/>
		<path d="M6.56,9.541h2.153c0-0.452,0.366-0.818,0.818-0.818h14.438c0.633,0,1.146,0.513,1.146,1.146v10.335    c0,0.283-0.229,0.513-0.512,0.513h-0.205v2.153h1.578c0.713,0,1.293-0.579,1.293-1.294V7.648c0-0.652-0.531-1.182-1.184-1.182    H7.853c-0.714,0-1.293,0.579-1.293,1.293V9.541z" fill="#006DF0"/>
		<path d="M22.963,16.819c0-1.474-1.193-2.665-2.666-2.665h-7.894v0.019l-0.794-1.74c-0.433-0.949-1.381-1.558-2.424-1.558h-6.52    C1.193,10.875,0,12.067,0,13.54v0.609v4.413v9.374c0,0.825,0.668,1.496,1.493,1.5l20.24,0.079c0.73,0.003,1.396-0.422,1.701-1.084    l1.483-3.215c0.112-0.244,0.093-0.528-0.052-0.756c-0.146-0.226-0.396-0.361-0.664-0.361h-1.238V16.819z M15.274,22.87h-2.153    v2.255h-2.254V22.87H8.713v-2.153h2.153v-2.123c0-0.018,0.014-0.03,0.032-0.03h2.186h0.037v2.153h2.153V22.87z" fill="#006DF0"/>
	</g>
</g>
<g>
</g>
<g>
</g>
<g>
</g>
<g>
</g>
<g>
</g>
<g>
</g>
<g>
</g>
<g>
</g>
<g>
</g>
<g>
</g>
<g>
</g>
<g>
</g>
<g>
</g>
<g>
</g>
<g>
</g>
</svg>
